<svg width="16" height="16" viewBox="0 0 16 16" fill="none" xmlns="http://www.w3.org/2000/svg">
<path d="M0.701039 3.54448L7.60233 0.09384C7.85255 -0.03128 8.14713 -0.03128 8.39735 0.09384L15.2986 3.54448C16.1376 3.96396 15.8391 5.22842 14.9011 5.22842H1.09857C0.160586 5.22842 -0.137912 3.96396 0.701039 3.54448Z" fill="#757575"/>
<path d="M2.66667 14.117V7.00586H4.44444V14.117H7.11111V7.00586H8.88889V14.117H11.5556V7.00586H13.3333V14.117H15.1111C15.602 14.117 16 14.5149 16 15.0059C16 15.4968 15.602 15.8947 15.1111 15.8947H0.888889C0.397973 15.8947 0 15.4968 0 15.0059C0 14.5149 0.397973 14.117 0.888889 14.117H2.66667Z" fill="#757575"/>
</svg>
