<svg width="35" height="15" viewBox="0 0 35 15" fill="none" xmlns="http://www.w3.org/2000/svg">
<path d="M0.638 14H9.188V12.38H2.366V8.294H8.414V6.674H2.366V2.876H8.864V1.256H0.638V14ZM17.9419 6.872V8.492H20.7679V12.038C19.9939 12.47 18.8419 12.704 17.6359 12.704C14.8279 12.704 12.6859 10.508 12.6859 7.628C12.6859 4.838 14.5759 2.552 17.4919 2.552C18.7699 2.552 19.9759 2.894 21.0199 3.902L22.2439 2.588C21.2539 1.562 19.8319 0.932 17.4919 0.932C13.6039 0.932 10.8499 3.848 10.8499 7.628C10.8499 11.246 13.3519 14.324 17.6719 14.324C19.2199 14.324 21.2539 13.91 22.4959 13.154V6.872H17.9419ZM25.6517 14H27.3797V8.384H30.1337C33.3917 8.384 34.2197 6.422 34.2197 4.82C34.2197 3.218 33.3917 1.256 30.1337 1.256H25.6517V14ZM27.3797 2.768H29.6477C31.0157 2.768 32.3837 3.092 32.3837 4.82C32.3837 6.548 31.0157 6.872 29.6477 6.872H27.3797V2.768Z" fill="url(#paint0_linear_2_121)"/>
<defs>
<linearGradient id="paint0_linear_2_121" x1="-1" y1="9.76389" x2="35" y2="9.76389" gradientUnits="userSpaceOnUse">
<stop stop-color="#D394EF"/>
<stop offset="1" stop-color="#85B2F5"/>
</linearGradient>
</defs>
</svg>
