<svg width="16" height="13" viewBox="0 0 16 13" fill="none" xmlns="http://www.w3.org/2000/svg">
<path d="M14.6667 0H1.33333C0.597222 0 0 0.597222 0 1.33333V1.77778H16V1.33333C16 0.597222 15.4028 0 14.6667 0ZM0 11.1111C0 11.8472 0.597222 12.4444 1.33333 12.4444H14.6667C15.4028 12.4444 16 11.8472 16 11.1111V2.66667H0V11.1111ZM9.77778 4.66667C9.77778 4.54444 9.87778 4.44444 10 4.44444H14C14.1222 4.44444 14.2222 4.54444 14.2222 4.66667V5.11111C14.2222 5.23333 14.1222 5.33333 14 5.33333H10C9.87778 5.33333 9.77778 5.23333 9.77778 5.11111V4.66667ZM9.77778 6.44444C9.77778 6.32222 9.87778 6.22222 10 6.22222H14C14.1222 6.22222 14.2222 6.32222 14.2222 6.44444V6.88889C14.2222 7.01111 14.1222 7.11111 14 7.11111H10C9.87778 7.11111 9.77778 7.01111 9.77778 6.88889V6.44444ZM9.77778 8.22222C9.77778 8.1 9.87778 8 10 8H14C14.1222 8 14.2222 8.1 14.2222 8.22222V8.66667C14.2222 8.78889 14.1222 8.88889 14 8.88889H10C9.87778 8.88889 9.77778 8.78889 9.77778 8.66667V8.22222ZM4.88889 4.44444C5.86944 4.44444 6.66667 5.24167 6.66667 6.22222C6.66667 7.20278 5.86944 8 4.88889 8C3.90833 8 3.11111 7.20278 3.11111 6.22222C3.11111 5.24167 3.90833 4.44444 4.88889 4.44444ZM1.86389 10.1167C2.09722 9.40278 2.76667 8.88889 3.55556 8.88889H3.78333C4.125 9.03055 4.49722 9.11111 4.88889 9.11111C5.28056 9.11111 5.65556 9.03055 5.99444 8.88889H6.22222C7.01111 8.88889 7.68056 9.40278 7.91389 10.1167C8.00278 10.3917 7.76944 10.6667 7.48056 10.6667H2.29722C2.00833 10.6667 1.775 10.3889 1.86389 10.1167Z" fill="#757575"/>
</svg>
